<?xml version="1.0" encoding="utf-8"?>
<!-- Generator: Adobe Illustrator 21.1.0, SVG Export Plug-In . SVG Version: 6.00 Build 0)  -->
<svg version="1.1" id="Layer_1" xmlns="http://www.w3.org/2000/svg" xmlns:xlink="http://www.w3.org/1999/xlink" x="0px" y="0px"
	 viewBox="0 0 459 351" style="enable-background:new 0 0 459 351;" xml:space="preserve">
<style type="text/css">
	.st0{fill:#6DB0FF;}
	.st1{opacity:0.3;}
	.st2{clip-path:url(#SVGID_2_);}
	.st3{clip-path:url(#SVGID_4_);fill:url(#SVGID_5_);}
	.st4{filter:url(#Adobe_OpacityMaskFilter);}
	.st5{clip-path:url(#SVGID_8_);}
	.st6{enable-background:new    ;}
	.st7{clip-path:url(#SVGID_10_);}
	.st8{clip-path:url(#SVGID_12_);fill:url(#SVGID_13_);}
	.st9{mask:url(#SVGID_6_);}
	.st10{clip-path:url(#SVGID_15_);fill:#AFB1B2;}
	.st11{clip-path:url(#SVGID_15_);fill:#DADADA;}
	.st12{clip-path:url(#SVGID_15_);fill:#FFFFFF;}
	.st13{clip-path:url(#SVGID_15_);fill:#F0CA99;}
	.st14{clip-path:url(#SVGID_15_);fill:#133265;}
	.st15{clip-path:url(#SVGID_15_);fill:#AAACAD;}
	.st16{fill:#133265;}
	.st17{fill:#21CF7B;}
	.st18{fill:#FFFFFF;}
	.st19{fill:#0F233F;}
	.st20{fill:#105E99;}
	.st21{fill:#007BFF;}
	.st22{fill:#B5B5B5;}
	.st23{fill:#0E2547;}
	.st24{fill:#95989B;}
	.st25{fill:#0F2749;}
	.st26{fill:#BABCBE;}
	.st27{fill:#87A8D8;}
	.st28{fill:#AAACAD;}
</style>
<g>
	<path class="st0" d="M72.1,22.6c9.5,0,17.2,7.7,17.2,17.2c0,9.5-7.7,17.2-17.2,17.2c-9.5,0-17.2-7.7-17.2-17.2
		C54.9,30.3,62.6,22.6,72.1,22.6"/>
	<path class="st0" d="M394.6,76.3c5.4,0,9.8,4.4,9.8,9.8c0,5.4-4.4,9.8-9.8,9.8c-5.4,0-9.8-4.4-9.8-9.8
		C384.8,80.7,389.2,76.3,394.6,76.3"/>
	<path class="st0" d="M85.9,299.7c7.4,0,13.4,6,13.4,13.4c0,7.4-6,13.4-13.4,13.4c-7.4,0-13.4-6-13.4-13.4
		C72.5,305.7,78.5,299.7,85.9,299.7"/>
	<g class="st1">
		<g>
			<defs>
				<rect id="SVGID_1_" x="73.5" y="18.8" width="312.3" height="332.1"/>
			</defs>
			<clipPath id="SVGID_2_">
				<use xlink:href="#SVGID_1_"  style="overflow:visible;"/>
			</clipPath>
			<g class="st2">
				<defs>
					<path id="SVGID_3_" d="M375.3,226.7c-40.6-72.2,26.8-180.5-53.6-200.5C161.4-13.7,73.5,118,73.5,200.9
						c0,82.9,67.2,150.1,150.1,150.1C306.5,350.9,421.2,308.2,375.3,226.7"/>
				</defs>
				<clipPath id="SVGID_4_">
					<use xlink:href="#SVGID_3_"  style="overflow:visible;"/>
				</clipPath>
				
					<linearGradient id="SVGID_5_" gradientUnits="userSpaceOnUse" x1="-452.0553" y1="2022.8295" x2="-451.0553" y2="2022.8295" gradientTransform="matrix(312.2774 0 0 312.2774 141240.1875 -631515.3125)">
					<stop  offset="0" style="stop-color:#6DB0FF"/>
					<stop  offset="0.1006" style="stop-color:#76B3FB"/>
					<stop  offset="0.4623" style="stop-color:#94BBED"/>
					<stop  offset="0.7746" style="stop-color:#A6C0E5"/>
					<stop  offset="1" style="stop-color:#ACC2E2"/>
				</linearGradient>
				<rect x="73.5" y="-13.7" class="st3" width="347.7" height="364.6"/>
			</g>
		</g>
	</g>
	<defs>
		<filter id="Adobe_OpacityMaskFilter" filterUnits="userSpaceOnUse" x="43.3" y="205.5" width="353.6" height="114.6">
			<feColorMatrix  type="matrix" values="1 0 0 0 0  0 1 0 0 0  0 0 1 0 0  0 0 0 1 0"/>
		</filter>
	</defs>
	<mask maskUnits="userSpaceOnUse" x="43.3" y="205.5" width="353.6" height="114.6" id="SVGID_6_">
		<g class="st4">
			<g>
				<defs>
					<rect id="SVGID_7_" x="43.3" y="205.5" width="353.6" height="114.6"/>
				</defs>
				<clipPath id="SVGID_8_">
					<use xlink:href="#SVGID_7_"  style="overflow:visible;"/>
				</clipPath>
				<rect x="43.3" y="205.5" class="st5" width="353.6" height="115.3"/>
				<g class="st6">
					<g>
						<defs>
							<rect id="SVGID_9_" x="43.3" y="205.5" width="353.6" height="115.3"/>
						</defs>
						<clipPath id="SVGID_10_" class="st5">
							<use xlink:href="#SVGID_9_"  style="overflow:visible;"/>
						</clipPath>
						<g>
							<defs>
								<path id="SVGID_11_" d="M375.3,226.7c-40.6-72.2,24.8-154.2-55.6-174.2C159.4,12.6,73.5,118,73.5,200.9
									c0,82.9,67.2,150.1,150.1,150.1C306.5,350.9,421.2,308.2,375.3,226.7"/>
							</defs>
							<clipPath id="SVGID_12_" class="st7">
								<use xlink:href="#SVGID_11_"  style="overflow:visible;"/>
							</clipPath>
							
								<linearGradient id="SVGID_13_" gradientUnits="userSpaceOnUse" x1="-452.0553" y1="2022.8315" x2="-451.0553" y2="2022.8315" gradientTransform="matrix(312.2774 0 0 312.2774 141240.1875 -631502.8125)">
								<stop  offset="0" style="stop-color:#6DB0FF"/>
								<stop  offset="0.1006" style="stop-color:#76B3FB"/>
								<stop  offset="0.4623" style="stop-color:#94BBED"/>
								<stop  offset="0.7746" style="stop-color:#A6C0E5"/>
								<stop  offset="1" style="stop-color:#ACC2E2"/>
							</linearGradient>
							<rect x="73.5" y="12.6" class="st8" width="347.7" height="338.3"/>
						</g>
					</g>
				</g>
			</g>
		</g>
	</mask>
	<g class="st9">
		<g>
			<defs>
				<rect id="SVGID_14_" x="43.3" y="205.5" width="353.6" height="114.6"/>
			</defs>
			<clipPath id="SVGID_15_">
				<use xlink:href="#SVGID_14_"  style="overflow:visible;"/>
			</clipPath>
			<path class="st10" d="M228.2,248.4c6-4.9,14.8-4,19.7,2l14.4,17.7c4.9,6,4,14.8-2,19.7l-23.6,19.4c-6,4.9-14.8,4-19.7-2
				l-14.4-17.7c-4.9-6-4-14.8,2-19.7L228.2,248.4z"/>
			<path class="st11" d="M276,281.9l-13.3,3.3l-20.1-4c-5.3-0.5-9.2-5.3-8.7-10.6l1.6-15.7c0.5-5.3,5.3-9.2,10.6-8.7l41.6,4.5
				L276,281.9z"/>
			<path class="st12" d="M213.1,244.3c-6-4.9-14.9-4-19.7,2.1l-13.7,17.1c-4.9,6-4,14.9,2.1,19.7l19.8,16.8c6,4.9,14.8,4,19.7-2.1
				l13.7-17.1c4.9-6,4-14.9-2.1-19.7L213.1,244.3z"/>
			<path class="st12" d="M240.4,308.2c-2.1,2.5-5.8,2.9-8.3,0.9l-33.8-27.4c-2.5-2-2.9-5.8-0.9-8.3c2.1-2.5,5.8-2.9,8.3-0.9
				l33.8,27.4C242.1,301.9,242.5,305.6,240.4,308.2"/>
			<path class="st12" d="M231.4,317c-2.1,2.5-5.8,2.8-8.3,0.7l-33.3-27.9c-2.5-2.1-2.8-5.8-0.7-8.3c2.1-2.5,5.8-2.8,8.3-0.7
				l33.3,27.9C233.2,310.8,233.5,314.5,231.4,317"/>
			<path class="st12" d="M249.1,299.3c-2,2.5-5.8,2.9-8.3,0.9L207,272.8c-2.5-2-2.9-5.8-0.9-8.3c2.1-2.5,5.8-2.9,8.3-0.9l33.7,27.4
				C250.7,293.1,251.1,296.8,249.1,299.3"/>
			<path class="st12" d="M257.5,290.2c-2,2.5-5.8,2.9-8.3,0.9l-33.8-27.4c-2.5-2.1-2.9-5.8-0.9-8.3c2-2.5,5.8-2.9,8.3-0.9l33.8,27.4
				C259.2,283.9,259.6,287.7,257.5,290.2"/>
			<path class="st12" d="M175.5,281l29.8,2c5.7-0.6,9.9-5.7,9.3-11.4l-1.8-16.8c-0.6-5.7-5.7-9.9-11.4-9.3l-30.2,2.6L175.5,281z"/>
			<path class="st13" d="M226.2,241.3l1.2,16.3c0.5,5.6,5.5,9.8,11.1,9.3l3.4-0.3c0.1,0,0.3,0,0.4-0.1l-1.8-20.4L226.2,241.3z"/>
			<polygon class="st12" points="235,257 215.9,252.8 218.9,239 240.3,245.9 			"/>
			<path class="st12" d="M171.7,244l47.4-4.9c0.4,1.1,0.6,2.3,0.8,3.5c1.2,11.6-10.2,22.3-25.4,23.8c-8,0.8-15.4-1-20.8-4.5
				L171.7,244z"/>
			
				<rect x="154" y="247.5" transform="matrix(0.2607 -0.9654 0.9654 0.2607 -123.4685 359.8985)" class="st12" width="38.4" height="26.2"/>
			
				<rect x="85.3" y="183" transform="matrix(0.2607 -0.9654 0.9654 0.2607 -155.653 286.985)" class="st14" width="48.6" height="124.2"/>
			<path class="st11" d="M216.1,244.2l-2.1,16.5c-0.8,5.7-6.1,9.7-11.8,8.8l-3.4-0.5c-0.1,0-0.3-0.1-0.4-0.1l3-20.7L216.1,244.2z"/>
			<polygon class="st11" points="206.2,259.7 225.9,256.5 223.6,242.3 201.4,248.1 			"/>
			<path class="st11" d="M271.4,250.1l-48-7.7c-0.4,1.1-0.8,2.3-1,3.5c-1.9,11.7,9.1,23.2,24.5,25.7c8.1,1.3,15.7-0.1,21.5-3.4
				L271.4,250.1z"/>
			
				<rect x="258.7" y="243.9" transform="matrix(0.9642 -0.265 0.265 0.9642 -60.189 80.8364)" class="st11" width="21.5" height="39.1"/>
			
				<rect x="268.5" y="223" transform="matrix(0.9642 -0.265 0.265 0.9642 -53.7246 96.4491)" class="st15" width="124.2" height="48.6"/>
			<path class="st11" d="M215,317.9c2.1,2.5,5.8,2.9,8.3,0.8l7-5.8c2.5-2.1,2.9-5.8,0.8-8.3c-2.1-2.5-5.8-2.9-8.3-0.8l-7,5.8
				C213.3,311.7,212.9,315.4,215,317.9"/>
			<path class="st11" d="M205.9,309.5c2.1,2.5,5.8,2.9,8.3,0.8l7-5.8c2.5-2.1,2.9-5.8,0.8-8.3c-2.1-2.5-5.8-2.9-8.3-0.8l-7,5.8
				C204.2,303.2,203.9,307,205.9,309.5"/>
			<path class="st11" d="M196.8,301.2c2.1,2.5,5.8,2.9,8.3,0.8l7-5.8c2.5-2.1,2.9-5.8,0.8-8.3c-2.1-2.5-5.8-2.9-8.3-0.8l-7,5.8
				C195.1,295,194.7,298.7,196.8,301.2"/>
			<path class="st11" d="M187.7,293c2.1,2.5,5.8,2.9,8.3,0.8l7-5.8c2.5-2.1,2.9-5.8,0.8-8.3c-2.1-2.5-5.8-2.9-8.3-0.8l-7,5.8
				C186.1,286.8,185.7,290.5,187.7,293"/>
		</g>
	</g>
	<path class="st16" d="M8.3,113.9c0,40.1,32.8,72.7,73.3,72.7v1c-41.1,0-74.3-33-74.3-73.7H8.3z M81.6,186.6
		c40.5,0,73.3-32.5,73.3-72.7h1c0,40.7-33.3,73.7-74.3,73.7V186.6z M303.6,113.9c0,40.1,32.8,72.7,73.3,72.7v1
		c-41.1,0-74.3-33-74.3-73.7H303.6z M376.9,186.6c40.5,0,73.3-32.5,73.3-72.7h1c0,40.7-33.3,73.7-74.3,73.7V186.6z M154.9,114.4
		c0-40.7,33.3-73.7,74.3-73.7v1c-40.5,0-73.3,32.5-73.3,72.7H154.9z M229.3,40.7c41.1,0,74.3,33,74.3,73.7h-1
		c0-40.1-32.8-72.7-73.3-72.7V40.7z"/>
	<path class="st17" d="M7.8,116.7c4.2,0,7.7-3.4,7.7-7.7c0-4.2-3.4-7.7-7.7-7.7c-4.2,0-7.7,3.4-7.7,7.7
		C0.1,113.3,3.5,116.7,7.8,116.7"/>
	<path class="st17" d="M230.1,49.3c4.2,0,7.7-3.4,7.7-7.7c0-4.2-3.4-7.7-7.7-7.7c-4.2,0-7.7,3.4-7.7,7.7
		C222.4,45.9,225.9,49.3,230.1,49.3"/>
	<path class="st17" d="M450.7,116.7c4.2,0,7.7-3.4,7.7-7.7c0-4.2-3.4-7.7-7.7-7.7c-4.2,0-7.7,3.4-7.7,7.7
		C443,113.3,446.5,116.7,450.7,116.7"/>
	<path class="st18" d="M208.3,104.1l10.4-0.7c0,0,0.5,3-3.9,3.2c0,0,10,10.4,9.2,11.7c-0.7,1.3-8.4-6.2-8.4-6.2s6.3,8.8,5.5,10.3
		c-0.8,1.5-8-7.6-8-7.6s5.2,9.2,4,9.7c-1.3,0.5-4.8-7.5-4.8-7.5s1.4,7.7-0.1,7.9c-1.5,0.2-2.2-8-2.2-8s-5.1-2.7-5.9-7.9
		C204.3,109,204.9,93.3,208.3,104.1"/>
	<path class="st19" d="M161.5,47.3c-6.2,5.8,16.7,36.7,16.7,36.7s22.5,27.4,24.7,29.7c7.2-0.8,7-12.5,7-12.5
		c1.5,1.3-20.7-19.5-28.5-31.1C177.7,64.6,169.4,40,161.5,47.3"/>
	<path class="st19" d="M150.8,46.7c-0.1,0-0.2,0.1-0.4,0.1c-14.3,5.2-8.9,45.6-9.4,62.6c-0.3,9.1-5.5,52.5-6.6,53
		c11.5-5.5,16.8-9.6,29.5-9.6c19.6-0.1,25.1,6.8,37.5,9.6c0-36.1-8.5-38.7-15.8-74.7c-6.1-30.3-12.6-39.4-15.3-40.6
		C164.3,44.3,156.9,44.4,150.8,46.7"/>
	<path class="st18" d="M179.8,235c0,0,0.6,5.2,3.3,9.1c3.7,5.5,5,7.6,2.2,7.2c-4.8-0.6-12.4-1.8-12.3-3.4c0.4-4.8-1.2-13.1-1.2-13.1
		L179.8,235z"/>
	<path class="st20" d="M162,136.1h18.7c0,0,1.5,19.7,1.1,39.7c-0.4,20-1.1,60.5-1.1,60.5l-9.5-0.8c0,0-3.5-33.4-3.3-43.4
		C168,182.1,162,136.1,162,136.1"/>
	<path class="st20" d="M172.9,243.3c0,0-2.2,3.8,0,5.5c5.2,1,10.5,5.4,15.7,3.7c3.9-2.1-4.1-6.3-4.1-6.3S184.4,251.1,172.9,243.3"/>
	<path class="st18" d="M137,232.6c0,0-1.8,4.9-1.2,9.5c0.8,6.6,1.1,9-1.2,7.4c-4-2.7-10.3-7.2-9.4-8.6c2.6-4.1,4.8-12.3,4.8-12.3
		L137,232.6z"/>
	<path class="st21" d="M146.6,134.5c10.2-5.9,22.4,1.9,22.4,1.9s-0.4,37.5-7.9,56c-8,19.8-21.4,43-21.4,43l-10.6-6.3
		c0,0,11.9-31.3,16.6-40.2C150.4,180.1,136.3,140.4,146.6,134.5"/>
	<path class="st21" d="M127.2,236.9c0,0-3.7,2.4-2.5,4.9c4.2,3.2,6.9,9.6,12.4,10.4c4.4-0.2-0.9-7.5-0.9-7.5
		S133.9,249.1,127.2,236.9"/>
	<path class="st22" d="M181.8,137.5c-8.7,9.9-26.8,0.5-40.2,1c-0.8-27.7-1.7-53.6,4.9-80.4c1.2-4.9,3-10.1,7.2-12.6
		c4.6-2.7,13.1-1.2,15.9,4.6c4.7,9.8,8.3,14.1,7.6,32C176.8,94.7,181.8,123.3,181.8,137.5"/>
	<path class="st16" d="M151.2,47.5c0,0,17.9,49.2,11.6,80.8c-3.3,16.9-6.5,36.4-6.5,36.4l-27.8,1.9c0,0,6.4-29.1,8.7-58.2
		C139.2,83.4,135.7,58.8,151.2,47.5"/>
	<path class="st23" d="M168.9,44.4c2,0.1,7.2,1.4,8.6-0.4c1.1-1.3-0.2-4.7-1-5.9c-0.6-1-2-1.3-2.6-2.3c-0.3-0.4-0.4-0.9-0.4-1.4
		c-0.3-1.9-0.4-3.9-0.1-5.9c0.2-1.3,0.5-2.6,0.4-4c-0.1-1.9-1.9-3.9-2.8-5.6c-1.8-3-7.1-6.6-10.5-3.5c-0.8,0.7-1.1,1.8-1.4,2.8
		c-0.2,0.6-0.3,1.3-0.2,1.9c0.4,2.5-15,25.2-13.1,24.7C156.7,41.5,165.4,44.2,168.9,44.4"/>
	<path class="st18" d="M169.7,25.9c-2.3-11.3-16.4-9.2-20.3,0c-2.6,6.1,1.2,14.9,7.3,17.5c-0.4,1.5-0.7,3.1-0.9,4.7
		c0.5,1.5,2,2,3.7,2.1c0.5,0,3.6-0.2,3.6-1.8c0-1.1-0.3-3.5-0.2-4.6c0.1,0,0.3-0.1,0.4-0.1c3.3-1.1,5.6-4.2,6.6-7.5
		C170.6,32.9,170.4,29.3,169.7,25.9"/>
	<path class="st16" d="M150.3,32.5c0.1,1.8,1.4,3.6,0.7,5.2c-0.3,0.7-1,1.2-1.5,1.8c-1.5,1.6-1.9,4.1-1.3,6.1
		c0.2,2.1-7.1,0.9-10.7,1.3c-0.5,0.1-1.1,0.1-1.6-0.1c-1.1-0.4-1.3-1.8-1.5-2.9c-0.2-2.3-0.5-4.7,0.7-6.7c0.5-0.9,1.3-1.7,1.8-2.6
		c2.5-4.4-1.7-10.8,1.5-14.7c1.4-1.7,3.9-2.3,5.8-3.4c3.4-2.1,5.1-6.2,8.6-8.1c6.6-3.5,14.7,3.9,11.6,10.8
		C161.9,24.9,149.7,25.3,150.3,32.5"/>
	<path class="st18" d="M129.1,117.9l6.6,8.1c0,0-2.2,2.1-4.8-1.3c0,0-2.8,14.2-4.2,14.3c-1.5,0.1,0.3-10.4,0.3-10.4
		s-1.9,10.6-3.6,10.8c-1.7,0.2,0-11.3,0-11.3s-0.6,10.9-1.8,10.2c-1.2-0.7-0.5-9.6-0.5-9.6s0.2,8.4-0.9,7.3c-1-1.1-0.4-9.2-0.4-9.2
		s-0.8-5.8,3-9.3C122.7,117.5,135.9,108.9,129.1,117.9"/>
	<path class="st16" d="M148.2,49c-8.3-1.5-20.8,34.7-20.8,34.7s-8.3,34.5-8.8,37.6c5,5.3,14.2-1.9,14.2-1.9
		c-0.1,1.9,3.1-28.3,7.7-41.5C142.6,71.6,158.8,50.9,148.2,49"/>
	<path class="st18" d="M253.7,122.9c-0.3-3.3-1.1-7.7-4.4-4.9c0,0-6.8,4.9-7.2,8.3c-0.4,3.4-1.2,10.1-1.6,12.1
		c-0.4,2.1,1.3,2.8,2.4,0.5c0.3-0.7,0.6-1.8,0.8-3c0.2,1.7,0.4,3.6,0.3,4.2c-0.2,1.1,1.4,2.2,2,0.8c0.1,0.2,0.3,0.2,0.6,0
		c1.4-0.8,2-5.3,2.5-7.6c0.3-1.8,1-4.2,0.9-5.7c0.6,0,1,0.1,1,0.8c0.1,1.5,1.9,9.3,2.9,5.1C254.8,129.9,254,126.2,253.7,122.9
		 M245.2,130.3c0,0,0,0.1,0,0.1C245.2,130.4,245.2,130.4,245.2,130.3C245.1,130.3,245.2,130.3,245.2,130.3"/>
	<path class="st24" d="M270.8,45.1c-6,0.4-10.3,31.6-13.4,41.1c-3,9.5-12.7,23-14.5,34.7c4.9,7.4,12.4,3.7,12.4,3.7
		s12.6-26.1,16.4-37C275.4,76.6,279.9,44.4,270.8,45.1"/>
	<path class="st25" d="M252.1,115.4c0,0-5,33-5,51.5c0,18.6,11.5,73.7,11.5,73.7l8.3-0.1c0,0-3.5-42.7,2-73.4
		c3.2-17.7,13.3-62.9,13.3-62.9L252.1,115.4z"/>
	<path class="st25" d="M266.8,245.1c-0.8,1.4-3.1,1.3-7.9,0.9c-4.8-0.4-12.2,0.9-12.8-0.7c-0.8-2.1,2.7-3.7,2.7-3.7l9.8-2.9l8.1,0.8
		C266.8,239.6,267.7,243.8,266.8,245.1"/>
	<path class="st18" d="M226,106.4l-10.3-1.9c0,0-0.8,2.9,3.5,3.6c0,0-11.1,9.3-10.5,10.6c0.6,1.3,9-5.3,9-5.3s-7.2,8-6.6,9.6
		c0.6,1.6,8.7-6.7,8.7-6.7s-6.2,8.5-5,9.2c1.2,0.7,5.6-6.9,5.6-6.9s-2.2,7.5-0.8,7.9c1.5,0.4,3-7.7,3-7.7s5.4-2.1,6.7-7.2
		C229.4,111.8,230.6,96.1,226,106.4"/>
	<path class="st16" d="M296.5,236.3c0,0-5.8-37.7-8.2-59c-1.6-14.1,9.3-60.5,9.3-60.5l-1.7-13.5l-34.5-1.3v20c0,0,2.2,27.5,3.2,48
		c1,20.5,25.2,70.1,25.2,70.1L296.5,236.3z"/>
	<path class="st16" d="M299.4,240.4c-0.1,1.6-2.9,2.8-5.4,3.6c-1.8,0.6-3.2,2-4.3,2.3c-1.4,0.5-9.2,0.5-9.9-1.1
		c-0.8-2.1,3.3-3.6,3.3-3.6l6.7-2.3l6.6-3.5C296.4,235.8,299.5,238.4,299.4,240.4"/>
	<path class="st26" d="M293.6,67.3c-1.3-17.3-4.8-33.6-25.7-23.4c-7.9,17.6-12.5,36-12.9,45.2c-0.5,9.2-6.8,31.5-8.9,42.6
		c22.1,1.7,28.1,6.9,49.6,3.9C299.5,135.1,295.6,94.9,293.6,67.3"/>
	<path class="st18" d="M275.3,43.5c1.2,0.6,3.9,0.8,6.8-0.3c0.6-0.2,1-0.8,1-1.4c0-1.7-0.2-3.5-0.4-5.2c2.1-0.8,4.6-1.9,5-4.1
		c0.1-0.7,3.3-4.2,3.2-4.9c-0.5-2.9-0.3-5.7-0.8-8.6c-0.2-1-0.4-2-0.9-2.9c-1-1.5-7.6-3.3-9.3-3.6c-4.5-0.8-9,0.6-12.5,3.6
		c-0.9,0.8-1.8,1.7-2.2,2.9c-0.6,1.8,0.1,6.9,0.6,8.7c0.4,1.7,0.9,3.4,1.3,5c0.5,1.9,1.2,4.1,3.1,4.9c1,0.4,2.2,0.3,3,0.8
		C274.7,39.5,274.4,41.8,275.3,43.5"/>
	<path class="st27" d="M268.2,5.3c3.4-1.3,6.9-4.1,13.8-4.5c6.9-0.3,11.8,7.4,12.8,8.8c3.1,4.9,3.2,11.6,0,16.4
		c-0.7,1.1-1.5,2.1-2.4,3c-1.8,2-3.2,4.4-5.7,5.1c0-0.6,0.1-3.4,0.3-6.3c2.7-1.6,3.3-8.4-0.7-7.4c-2.8,0.7-2.1-5.2-6.9-5.9
		c-3.7-0.5-12.2,6.1-15.8,6.7c-2.6,0.4-10.8-8.3-4.7-14.4C261.2,4.8,264.5,6.7,268.2,5.3"/>
	<path class="st28" d="M282.5,48.4c-5.5-2.3-23.2,23.8-30.1,31c-6.9,7.2-21.5,15.1-28.3,24.8c1.2,8.8,9.5,8.8,9.5,8.8
		s22.8-17.9,31-26.1C272.8,78.8,290.9,51.9,282.5,48.4"/>
</g>
</svg>
